<svg
        xmlns="http://www.w3.org/2000/svg" version="1.1"
        xmlns:xlink="http://www.w3.org/1999/xlink"
        xmlns:svgjs="http://svgjs.com/svgjs" width="100" height="100" x="0" y="0" viewBox="0 0 496 496" style="enable-background:new 0 0 512 512" xml:space="preserve" class="">
    <g>
        <path
                xmlns="http://www.w3.org/2000/svg" d="m488 80c0 39.765625-32.234375 72-72 72s-72-32.234375-72-72 32.234375-72 72-72 72 32.234375 72 72zm0 0" fill="#314592" data-original="#bf4653" class="">
        </path>
        <path
                xmlns="http://www.w3.org/2000/svg" d="m280 184h176c17.671875 0 32 14.328125 32 32s-14.328125 32-32 32h-416c-17.671875 0-32-14.328125-32-32s14.328125-32 32-32h176" fill="#ff7043" data-original="#bc8f6f" class="">
        </path>
        <path
                xmlns="http://www.w3.org/2000/svg" d="m456 208h-416c-13.425781 0-24.871094 8.28125-29.625 20 4.753906 11.71875 16.199219 20 29.625 20h416c13.425781 0 24.871094-8.28125 29.625-20-4.753906-11.71875-16.199219-20-29.625-20zm0 0" fill="#ff9a94" data-original="#cb9e78" class="">
        </path>
        <path
                xmlns="http://www.w3.org/2000/svg" d="m248 8c-17.671875 0-32 14.328125-32 32v160c0 17.671875 14.328125 32 32 32s32-14.328125 32-32v-160c0-17.671875-14.328125-32-32-32zm0 0" fill="#7f858d" data-original="#52575f" class="">
        </path>
        <path
                xmlns="http://www.w3.org/2000/svg" d="m236 10.375c-11.71875 4.753906-20 16.199219-20 29.625v160c0 13.425781 8.28125 24.871094 20 29.625 11.71875-4.753906 20-16.199219 20-29.625v-160c0-13.425781-8.28125-24.871094-20-29.625zm0 0" fill="#949faf" data-original="#666d77" class="">
        </path>
        <path
                xmlns="http://www.w3.org/2000/svg" d="m456 248v208c0 17.671875-14.328125 32-32 32h-352c-17.671875 0-32-14.328125-32-32v-208" fill="#314592" data-original="#bf4653" class="">
        </path>
        <path
                xmlns="http://www.w3.org/2000/svg" d="m72 488h350.871094c.664062-2.566406 1.128906-5.222656 1.128906-8v-208h-384v184c0 17.671875 14.328125 32 32 32zm0 0" fill="#6c85e3" data-original="#dc6068" class="">
        </path>
        <g
                xmlns="http://www.w3.org/2000/svg" fill="#fff">
            <path d="m192 440c-13.257812 0-24-10.742188-24-24v-96c0-13.257812 10.742188-24 24-24s24 10.742188 24 24v96c0 13.257812-10.742188 24-24 24zm0 0" fill="#ffffff" data-original="#ffffff" class=""></path>
            <path d="m112 440c-13.257812 0-24-10.742188-24-24v-96c0-13.257812 10.742188-24 24-24s24 10.742188 24 24v96c0 13.257812-10.742188 24-24 24zm0 0" fill="#ffffff" data-original="#ffffff" class=""></path>
            <path d="m304 440c-13.257812 0-24-10.742188-24-24v-96c0-13.257812 10.742188-24 24-24s24 10.742188 24 24v96c0 13.257812-10.742188 24-24 24zm0 0" fill="#ffffff" data-original="#ffffff" class=""></path>
            <path d="m384 440c-13.257812 0-24-10.742188-24-24v-96c0-13.257812 10.742188-24 24-24s24 10.742188 24 24v96c0 13.257812-10.742188 24-24 24zm0 0" fill="#ffffff" data-original="#ffffff" class=""></path>
        </g>
        <path
                xmlns="http://www.w3.org/2000/svg" d="m456 256h-416c-22.054688 0-40-17.945312-40-40s17.945312-40 40-40h176v16h-176c-13.230469 0-24 10.769531-24 24s10.769531 24 24 24h416c13.230469 0 24-10.769531 24-24s-10.769531-24-24-24h-176v-16h176c22.054688 0 40 17.945312 40 40s-17.945312 40-40 40zm0 0" fill="#000000" data-original="#000000" class="">
        </path>
        <path
                xmlns="http://www.w3.org/2000/svg" d="m424 496h-352c-22.054688 0-40-17.945312-40-40v-208h16v208c0 13.230469 10.769531 24 24 24h352c13.230469 0 24-10.769531 24-24v-208h16v208c0 22.054688-17.945312 40-40 40zm0 0" fill="#000000" data-original="#000000" class="">
        </path>
        <path
                xmlns="http://www.w3.org/2000/svg" d="m192 448c-17.648438 0-32-14.351562-32-32v-96c0-17.648438 14.351562-32 32-32s32 14.351562 32 32v96c0 17.648438-14.351562 32-32 32zm0-144c-8.824219 0-16 7.175781-16 16v96c0 8.824219 7.175781 16 16 16s16-7.175781 16-16v-96c0-8.824219-7.175781-16-16-16zm0 0" fill="#000000" data-original="#000000" class="">
        </path>
        <path
                xmlns="http://www.w3.org/2000/svg" d="m112 448c-17.648438 0-32-14.351562-32-32v-96c0-17.648438 14.351562-32 32-32s32 14.351562 32 32v96c0 17.648438-14.351562 32-32 32zm0-144c-8.824219 0-16 7.175781-16 16v96c0 8.824219 7.175781 16 16 16s16-7.175781 16-16v-96c0-8.824219-7.175781-16-16-16zm0 0" fill="#000000" data-original="#000000" class="">
        </path>
        <path
                xmlns="http://www.w3.org/2000/svg" d="m304 448c-17.648438 0-32-14.351562-32-32v-96c0-17.648438 14.351562-32 32-32s32 14.351562 32 32v96c0 17.648438-14.351562 32-32 32zm0-144c-8.824219 0-16 7.175781-16 16v96c0 8.824219 7.175781 16 16 16s16-7.175781 16-16v-96c0-8.824219-7.175781-16-16-16zm0 0" fill="#000000" data-original="#000000" class="">
        </path>
        <path
                xmlns="http://www.w3.org/2000/svg" d="m384 448c-17.648438 0-32-14.351562-32-32v-96c0-17.648438 14.351562-32 32-32s32 14.351562 32 32v96c0 17.648438-14.351562 32-32 32zm0-144c-8.824219 0-16 7.175781-16 16v96c0 8.824219 7.175781 16 16 16s16-7.175781 16-16v-96c0-8.824219-7.175781-16-16-16zm0 0" fill="#000000" data-original="#000000" class="">
        </path>
        <path
                xmlns="http://www.w3.org/2000/svg" d="m248 240c-22.054688 0-40-17.945312-40-40v-160c0-22.054688 17.945312-40 40-40s40 17.945312 40 40v160c0 22.054688-17.945312 40-40 40zm0-224c-13.230469 0-24 10.769531-24 24v160c0 13.230469 10.769531 24 24 24s24-10.769531 24-24v-160c0-13.230469-10.769531-24-24-24zm0 0" fill="#000000" data-original="#000000" class="">
        </path>
        <path
                xmlns="http://www.w3.org/2000/svg" d="m240 192h16v16h-16zm0 0" fill="#000000" data-original="#000000" class="">
        </path>
        <path
                xmlns="http://www.w3.org/2000/svg" d="m416 160c-44.113281 0-80-35.886719-80-80s35.886719-80 80-80 80 35.886719 80 80-35.886719 80-80 80zm0-144c-35.289062 0-64 28.710938-64 64s28.710938 64 64 64 64-28.710938 64-64-28.710938-64-64-64zm0 0" fill="#000000" data-original="#000000" class="">
        </path>
        <path
                xmlns="http://www.w3.org/2000/svg" d="m368 72h96v16h-96zm0 0" fill="#000000" data-original="#000000" class="">
        </path>
        <path
                xmlns="http://www.w3.org/2000/svg" d="m40 240h56v16h-56zm0 0" fill="#000000" data-original="#000000" class="">
        </path>
    </g>
</svg>